# Blender 5.1.1
# www.blender.org
mtllib Floor1.mtl
o Floor.002
v -2.102168 0.000000 4.000000
v -1.047050 0.000000 4.000000
v 0.000000 0.000000 4.000000
v 1.047050 0.000000 4.000000
v 2.102168 0.000000 4.000000
v -2.102168 0.000000 2.699821
v -1.047050 0.000000 2.699821
v 0.000000 0.000000 2.699821
v 1.047050 0.000000 2.699821
v 2.102168 0.000000 2.699821
v -2.102168 0.000000 1.302154
v -1.047050 0.000000 1.302154
v 0.000000 0.000000 1.302154
v 1.047050 0.000000 1.302154
v 2.102168 0.000000 1.302154
v -2.102168 -0.000000 -0.095514
v -1.047050 -0.000000 -0.095514
v 0.000000 -0.000000 -0.095514
v 1.047050 -0.000000 -0.095514
v 2.102168 -0.000000 -0.095514
v -2.102168 -0.000000 -1.388395
v -1.047050 -0.000000 -1.388395
v 0.000000 -0.000000 -1.388395
v 1.047050 -0.000000 -1.388395
v 2.102168 -0.000000 -1.388395
v -2.102168 0.519946 4.000000
v -1.047050 0.519946 4.000000
vn -0.0000 0.7071 -0.7071
vn -0.0000 0.8944 -0.4472
vn -0.0000 1.0000 -0.0000
vn -0.0000 -0.0000 -1.0000
vt 0.000000 0.000000
vt 0.250000 0.000000
vt 0.000000 0.250000
vt 0.250000 0.250000
vt 0.500000 0.000000
vt 0.500000 0.250000
vt 0.750000 0.000000
vt 0.750000 0.250000
vt 1.000000 0.000000
vt 1.000000 0.250000
vt 0.000000 0.500000
vt 0.250000 0.500000
vt 0.500000 0.500000
vt 0.750000 0.500000
vt 1.000000 0.500000
vt 0.000000 0.750000
vt 0.250000 0.750000
vt 0.500000 0.750000
vt 0.750000 0.750000
vt 1.000000 0.750000
vt 0.000000 1.000000
vt 0.250000 1.000000
vt 0.500000 1.000000
vt 0.750000 1.000000
vt 1.000000 1.000000
s 1
usemtl standardSurface13SG.002
f 1/1/1 2/2/2 6/3/3
f 6/3/3 2/2/2 7/4/3
f 2/2/2 3/5/3 7/4/3
f 7/4/3 3/5/3 8/6/3
f 3/5/3 4/7/3 8/6/3
f 8/6/3 4/7/3 9/8/3
f 4/7/3 5/9/3 9/8/3
f 9/8/3 5/9/3 10/10/3
f 6/3/3 7/4/3 11/11/3
f 11/11/3 7/4/3 12/12/3
f 7/4/3 8/6/3 12/12/3
f 12/12/3 8/6/3 13/13/3
f 8/6/3 9/8/3 13/13/3
f 13/13/3 9/8/3 14/14/3
f 9/8/3 10/10/3 14/14/3
f 14/14/3 10/10/3 15/15/3
f 11/11/3 12/12/3 16/16/3
f 16/16/3 12/12/3 17/17/3
f 12/12/3 13/13/3 17/17/3
f 17/17/3 13/13/3 18/18/3
f 13/13/3 14/14/3 18/18/3
f 18/18/3 14/14/3 19/19/3
f 14/14/3 15/15/3 19/19/3
f 19/19/3 15/15/3 20/20/3
f 16/16/3 17/17/3 21/21/3
f 21/21/3 17/17/3 22/22/3
f 17/17/3 18/18/3 22/22/3
f 22/22/3 18/18/3 23/23/3
f 18/18/3 19/19/3 23/23/3
f 23/23/3 19/19/3 24/24/3
f 19/19/3 20/20/3 24/24/3
f 24/24/3 20/20/3 25/25/3
f 1/1/1 27/2/4 2/2/2
f 1/1/1 26/1/4 27/2/4
