# This file uses centimeters as units for non-parametric coordinates.

mtllib Floor.mtl
g default
v -1.729790 0.000000 -1.388395
v 1.729790 0.000000 -1.388395
v -1.729790 0.000000 4.135756
v 1.729790 0.000000 4.135756
vt 0.000000 0.000000
vt 1.000000 0.000185
vt 1.000000 1.000000
vt 0.000000 1.000000
vn 0.000000 -1.000000 0.000000
vn 0.000000 -1.000000 0.000000
vn 0.000000 -1.000000 0.000000
vn 0.000000 -1.000000 0.000000
s 1
g carpet scene
usemtl initialShadingGroup
f 3/1/1 1/4/2 4/2/3
f 1/4/2 2/3/4 4/2/3
