# This file uses centimeters as units for non-parametric coordinates.

mtllib Room.mtl
g default
v -0.090319 0.904244 -1.388395
v -0.090319 1.971469 -1.388395
v 1.210610 1.971469 -1.388395
v 1.729790 2.241494 -1.388395
v -1.729790 2.241494 -1.388395
v 1.210610 0.904244 -1.388395
v -1.729790 2.241494 4.135756
v 1.729790 2.241494 4.135756
v -1.729790 0.000000 -1.388395
v 1.729790 0.000000 -1.388395
v 1.729790 0.000000 4.135756
v -1.729790 0.000000 4.135756
vt 1.000000 1.000000
vt 0.596589 1.000000
vt 0.120467 1.000000
vt 0.120467 1.000000
vt 0.000000 1.000000
vt 0.000000 1.000000
vt 0.596589 1.000000
vt 1.000000 1.000000
vt 0.000000 1.000000
vt 0.000000 1.000000
vt 0.000000 0.000000
vt 0.000000 0.000185
vt 0.000000 1.000000
vt 0.000000 1.000000
vt 1.000000 1.000000
vt 1.000000 1.000000
vt 1.000000 0.000185
vt 1.000000 0.000000
vn -0.000000 0.000000 1.000000
vn 0.000000 0.000000 1.000000
vn 0.000000 0.000000 1.000000
vn 0.000000 0.000000 1.000000
vn 0.000000 0.000000 1.000000
vn 0.000000 0.000000 1.000000
vn -0.000000 0.000000 1.000000
vn -0.000000 0.000000 1.000000
vn -1.000000 0.000000 0.000000
vn -1.000000 0.000000 0.000000
vn -1.000000 0.000000 0.000000
vn -1.000000 0.000000 0.000000
vn 0.000000 1.000000 0.000000
vn 0.000000 1.000000 0.000000
vn 0.000000 1.000000 0.000000
vn 0.000000 1.000000 0.000000
vn 1.000000 0.000000 0.000000
vn 1.000000 0.000000 0.000000
vn 1.000000 0.000000 0.000000
vn 1.000000 0.000000 0.000000
s 1
g room scene
usemtl initialShadingGroup
f 4/5/1 5/6/2 3/4/3
f 3/4/3 5/6/2 2/3/4
f 9/1/5 1/2/6 5/6/2
f 1/2/6 2/3/4 5/6/2
f 9/1/5 10/8/7 1/2/6
f 1/2/6 10/8/7 6/7/8
f 10/8/7 4/5/1 6/7/8
f 3/4/3 6/7/8 4/5/1
s 3
f 12/9/9 7/12/10 9/10/11
f 7/12/10 5/11/12 9/10/11
s 4
f 5/6/13 7/14/14 4/5/15
f 7/14/14 8/13/16 4/5/15
s 5
f 10/15/17 4/18/18 11/16/19
f 4/18/18 8/17/20 11/16/19
