# This file uses centimeters as units for non-parametric coordinates.

mtllib Room_complete.mtl
g default
v -2.093638 0.000000 4.000000
v -1.047050 0.000000 4.000000
v 0.000000 0.000000 4.000000
v 1.047050 0.000000 4.000000
v 2.093638 0.000000 4.000000
v -2.102168 0.000000 2.699821
v -1.047050 0.000000 2.699821
v 0.000000 0.000000 2.699821
v 1.047050 0.000000 2.699821
v 2.102168 0.000000 2.699821
v -2.102168 0.000000 1.302154
v -1.047050 0.000000 1.302154
v 0.000000 0.000000 1.302154
v 1.047050 0.000000 1.302154
v 2.102168 0.000000 1.302154
v -2.102168 0.000000 -0.095514
v -1.047050 0.000000 -0.095514
v 0.000000 0.000000 -0.095514
v 1.047050 0.000000 -0.095514
v 2.102168 0.000000 -0.095514
v -2.093638 0.000000 -1.388395
v -1.047050 0.000000 -1.388395
v 0.000000 0.000000 -1.388395
v 1.047050 0.000000 -1.388395
v 2.093638 0.000000 -1.388395
v -0.018011 0.910053 -1.388395
v -0.018011 1.993347 -1.388395
v 1.138302 1.993347 -1.388395
v 2.093638 2.263372 -1.388395
v -2.093638 2.263372 -1.388395
v 1.138302 0.910053 -1.388395
v 2.093638 2.261305 4.000000
v -2.093639 2.261305 4.000000
v 2.093638 2.263372 3.057502
v -2.093638 2.263372 3.057502
v -2.093638 0.000000 3.057502
v 2.093638 0.000000 3.057502
v 0.000000 2.263372 0.834553
v 2.093637 1.241494 0.834553
v -2.093637 1.241494 0.834553
v -2.093638 2.263372 0.834553
v 2.093638 0.000000 0.834553
v -2.093638 0.000000 0.834553
v 2.093638 2.263372 0.834553
v 0.000000 2.261305 4.000000
v 0.000000 0.000000 -1.388395
v 0.000000 2.263372 -1.388395
v 0.000000 2.263372 3.057502
v -0.864895 2.263372 -0.276921
v -0.864895 2.263372 1.946028
v 0.864895 2.263372 1.946028
v 0.864895 2.263372 -0.276921
v 2.093637 1.801867 1.946028
v -2.093637 1.801867 1.946028
v -2.093637 0.681120 -0.276921
v 2.093637 1.801867 -0.276921
v 2.093637 0.681120 -0.276921
v -2.093637 1.801867 -0.276921
v 2.093637 0.681120 1.946028
v -2.093637 0.681120 1.946028
vt 0.002043 0.000015
vt 0.250000 0.000000
vt 0.500000 0.000000
vt 0.750000 0.000000
vt 0.997973 0.000004
vt 0.000000 0.250000
vt 0.250000 0.250000
vt 0.500000 0.250000
vt 0.750000 0.250000
vt 1.000000 0.250000
vt 0.000000 0.500000
vt 0.250000 0.500000
vt 0.500000 0.500000
vt 0.750000 0.500000
vt 1.000000 0.500000
vt 0.000000 0.750000
vt 0.250000 0.750000
vt 0.500000 0.750000
vt 0.750000 0.750000
vt 1.000000 0.750000
vt 0.002027 0.999996
vt 0.250000 1.000000
vt 0.500000 1.000000
vt 0.750000 1.000000
vt 0.997957 0.999985
vt 0.000000 1.000000
vt 0.120467 1.000000
vt 0.120467 1.000000
vt 0.000000 1.000000
vt 0.000000 1.000000
vt 0.999995 1.000000
vt 0.596589 1.000000
vt 1.000000 1.000000
vt 0.999991 1.000000
vt 0.596589 1.000000
vt 0.250000 0.157208
vt 0.500000 0.314416
vt 0.000000 0.314416
vt 0.250000 0.471624
vt 0.750000 0.471624
vt 0.500000 0.628832
vt 0.250000 0.157208
vt 0.500000 0.314416
vt 0.000000 0.314416
vt 0.000000 0.628832
vt 0.750000 0.471624
vt 1.000000 0.628832
vt 0.000000 0.314416
vt 0.250000 0.471624
vt 0.000000 0.628832
vt 1.000000 0.628832
vt 0.000000 0.628832
vt 0.500000 1.000000
vt 0.000000 1.000000
vt 0.000005 0.999990
vt 1.000000 1.000000
vt 0.000000 1.000000
vt 0.999980 0.999958
vt 0.750000 0.157208
vt 1.000000 0.314416
vt 0.999995 0.000002
vt 0.250000 0.157208
vt 0.000000 0.000000
vt 0.750000 0.471624
vt 1.000000 0.314416
vt 0.750000 0.157208
vt 1.000000 0.314416
vt 0.750000 0.157208
vt 0.500000 0.314416
vt 0.250000 0.471624
vt 1.000000 0.000000
vt 1.000000 0.628832
vt 1.000000 1.000000
vt 0.500000 0.000000
vt 0.000000 0.000000
vt 0.000010 0.000004
vt 1.000000 0.000000
vn 0.000000 1.000000 0.000000
vn 0.000000 1.000000 0.000000
vn 0.000000 1.000000 0.000000
vn 0.000000 1.000000 0.000000
vn 0.000000 1.000000 0.000000
vn 0.000000 1.000000 0.000000
vn 0.000000 1.000000 0.000000
vn 0.000000 1.000000 0.000000
vn 0.000000 1.000000 0.000000
vn 0.000000 1.000000 0.000000
vn 0.000000 1.000000 0.000000
vn 0.000000 1.000000 0.000000
vn 0.000000 1.000000 0.000000
vn 0.000000 1.000000 0.000000
vn 0.000000 1.000000 0.000000
vn 0.000000 1.000000 -0.000000
vn 0.000000 1.000000 -0.000000
vn 0.000000 1.000000 0.000000
vn 0.000000 1.000000 0.000000
vn 0.000000 1.000000 0.000000
vn 0.000000 1.000000 -0.000000
vn 0.000000 1.000000 0.000000
vn 0.000000 1.000000 0.000000
vn 0.000000 1.000000 0.000000
vn 0.000000 1.000000 0.000000
vn 0.000000 0.000000 1.000000
vn -0.000000 0.000000 1.000000
vn 0.000000 -0.000000 1.000000
vn -0.000000 0.000000 1.000000
vn 0.000000 -0.000000 1.000000
vn 0.000000 -0.000000 1.000000
vn 0.000000 -0.000000 1.000000
vn 0.000000 -0.000000 1.000000
vn 0.000000 -0.000000 1.000000
vn -0.000000 -0.000000 1.000000
vn 0.000000 -1.000000 0.000000
vn 0.000000 -1.000000 0.000000
vn 0.000000 -1.000000 0.000000
vn 0.000000 -1.000000 0.000000
vn 0.000000 -1.000000 0.000000
vn 0.000000 -0.999999 -0.001048
vn 1.000000 -0.000000 -0.000000
vn 1.000000 0.000000 0.000000
vn 1.000000 -0.000000 0.000000
vn 1.000000 -0.000000 0.000000
vn 1.000000 0.000000 0.000000
vn 1.000000 0.000000 0.000000
vn -1.000000 -0.000000 -0.000000
vn -1.000000 0.000000 0.000000
vn -1.000000 0.000000 0.000000
vn -1.000000 -0.000000 0.000000
vn 0.000000 -1.000000 -0.000958
vn 0.000000 -0.999998 -0.002193
vn 0.000000 -0.999998 -0.002192
vn 1.000000 0.000000 0.000000
vn 1.000000 0.000000 0.000001
vn -1.000000 0.000000 0.000000
vn -1.000000 0.000000 0.000000
vn 0.000000 -1.000000 0.000000
vn 0.000000 -1.000000 0.000000
vn -1.000000 -0.000000 -0.000000
vn -1.000000 0.000000 -0.000000
vn -1.000000 0.000000 -0.000000
vn -1.000000 -0.000000 0.000000
vn -1.000000 -0.000000 0.000000
vn 1.000000 0.000000 -0.000000
vn 1.000000 0.000000 0.000000
vn -1.000000 -0.000000 -0.000000
vn -1.000000 -0.000000 -0.000000
vn 1.000000 -0.000000 0.000000
vn 0.000000 -1.000000 0.000000
vn 0.000000 -1.000000 -0.000958
vn 0.000000 -0.999998 -0.002192
vn 0.000000 -1.000000 0.000000
vn 0.000000 -1.000000 0.000000
vn 1.000000 -0.000000 -0.000000
vn 1.000000 0.000000 -0.000000
s 1
g Room_ scene
usemtl standardSurface13SG
f 1/1/1 2/2/2 6/6/3
f 6/6/3 2/2/2 7/7/4
f 2/2/2 3/3/5 7/7/4
f 7/7/4 3/3/5 8/8/6
f 3/3/5 4/4/7 8/8/6
f 8/8/6 4/4/7 9/9/8
f 4/4/7 5/5/9 9/9/8
f 9/9/8 5/5/9 10/10/10
f 6/6/3 7/7/4 11/11/11
f 11/11/11 7/7/4 12/12/12
f 7/7/4 8/8/6 12/12/12
f 12/12/12 8/8/6 13/13/13
f 8/8/6 9/9/8 13/13/13
f 13/13/13 9/9/8 14/14/14
f 9/9/8 10/10/10 14/14/14
f 14/14/14 10/10/10 15/15/15
f 11/11/11 12/12/12 16/16/16
f 16/16/16 12/12/12 17/17/17
f 12/12/12 13/13/13 17/17/17
f 17/17/17 13/13/13 18/18/18
f 13/13/13 14/14/14 18/18/18
f 18/18/18 14/14/14 19/19/19
f 14/14/14 15/15/15 19/19/19
f 19/19/19 15/15/15 20/20/20
f 16/16/16 17/17/17 21/21/21
f 21/21/21 17/17/17 22/22/22
f 17/17/17 18/18/18 22/22/22
f 22/22/22 18/18/18 23/23/23
f 18/18/18 19/19/19 23/23/23
f 23/23/23 19/19/19 24/24/24
f 19/19/19 20/20/20 24/24/24
f 24/24/24 20/20/20 25/25/25
s 2
usemtl standardSurface12SG
f 47/26/26 27/27/27 28/28/28
f 47/26/26 30/29/29 27/27/27
f 29/30/30 28/28/28 25/31/31
f 28/28/28 31/32/32 25/31/31
f 25/31/31 31/32/32 46/33/33
f 21/34/34 26/35/35 30/29/29
f 26/35/35 27/27/27 30/29/29
s 4
f 49/36/36 38/37/37 41/38/38
f 50/39/39 51/40/40 48/41/41
s 6
f 55/42/42 40/43/43 43/44/44
f 36/45/45 54/46/46 35/47/47
s 8
f 44/48/48 53/49/49 34/50/50
f 34/50/50 53/49/49 37/51/51
s 4
f 35/52/52 45/53/53 33/54/54
s 6
f 36/45/45 35/47/47 1/55/55
f 1/55/55 35/47/47 33/56/56
s 8
f 34/50/50 37/51/51 32/57/57
f 32/57/57 37/51/51 5/58/58
s 4
f 52/59/59 38/37/37 49/36/36
f 38/37/37 44/60/60 51/40/40
s 8
f 25/61/61 56/62/62 29/63/63
f 59/64/64 42/65/65 37/51/51
s 6
f 58/66/66 40/43/43 55/42/42
f 40/43/43 58/66/66 41/67/67
s 4
f 50/39/39 41/38/38 38/37/37
s 6
f 41/67/67 35/47/47 54/46/46
s 8
f 57/68/68 42/65/65 39/69/69
s 6
f 60/70/70 43/44/44 40/43/43
s 4
f 29/71/71 44/60/60 52/59/59
s 8
f 44/48/48 29/63/63 56/62/62
s 4
f 48/41/41 45/53/53 35/52/52
f 45/53/53 34/72/72 32/73/73
s 2
f 21/34/34 46/33/33 26/35/35
f 29/30/30 47/26/26 28/28/28
s 4
f 47/74/74 29/71/71 52/59/59
f 51/40/40 50/39/39 38/37/37
f 48/41/41 34/72/72 45/53/53
s 2
f 31/32/32 26/35/35 46/33/33
s 4
f 30/75/75 49/36/36 41/38/38
f 49/36/36 30/75/75 47/74/74
f 35/52/52 50/39/39 48/41/41
f 50/39/39 35/52/52 41/38/38
f 34/72/72 51/40/40 44/60/60
f 51/40/40 34/72/72 48/41/41
f 38/37/37 52/59/59 44/60/60
f 52/59/59 49/36/36 47/74/74
s 8
f 39/69/69 53/49/49 44/48/48
f 53/49/49 59/64/64 37/51/51
s 6
f 40/43/43 54/46/46 60/70/70
f 54/46/46 40/43/43 41/67/67
f 21/76/76 55/42/42 43/44/44
f 55/42/42 21/76/76 30/77/77
s 8
f 39/69/69 56/62/62 57/68/68
f 56/62/62 39/69/69 44/48/48
f 25/61/61 57/68/68 56/62/62
f 57/68/68 25/61/61 42/65/65
s 6
f 30/77/77 58/66/66 55/42/42
f 58/66/66 30/77/77 41/67/67
s 8
f 39/69/69 59/64/64 53/49/49
f 59/64/64 39/69/69 42/65/65
s 6
f 36/45/45 60/70/70 54/46/46
f 60/70/70 36/45/45 43/44/44
