# This file uses centimeters as units for non-parametric coordinates.

mtllib TV.mtl
g default
v -1.688850 0.817823 -0.462968
v -1.688313 0.827386 -0.467197
v -1.693020 0.825256 -0.457447
v -0.802447 0.825256 -1.348020
v -0.812074 0.827212 -1.343436
v -0.807968 0.817823 -1.343850
v -1.693020 1.611588 -0.457447
v -1.688436 1.609633 -0.467074
v -1.688850 1.619021 -0.462968
v -0.807968 1.619021 -1.343850
v -0.812197 1.609459 -1.343313
v -0.802447 1.611588 -1.348020
v -1.708424 1.605547 -0.512069
v -1.709321 1.596266 -0.517462
v -1.714042 1.598262 -0.507785
v -0.852785 1.598262 -1.369042
v -0.862288 1.596511 -1.364494
v -0.857069 1.605547 -1.363424
v -1.714042 0.838583 -0.507785
v -1.709494 0.840333 -0.517288
v -1.708424 0.831297 -0.512069
v -0.857069 0.831297 -1.363424
v -0.862462 0.840579 -1.364321
v -0.852785 0.838583 -1.369042
v -1.714806 1.630096 -0.464169
v -1.720899 1.623911 -0.457832
v -1.713589 1.623791 -0.451387
v -1.706105 1.629200 -0.458078
v -0.803078 1.629200 -1.361105
v -0.796449 1.623519 -1.368378
v -0.802659 1.624122 -1.375922
v -0.809170 1.630096 -1.369806
v -1.706105 0.807644 -0.458078
v -1.713378 0.813325 -0.451449
v -1.720922 0.812723 -0.457659
v -1.714806 0.806748 -0.464169
v -0.796387 0.813053 -1.368589
v -0.802915 0.807545 -1.361388
v -0.809170 0.806748 -1.369806
v -0.802659 0.812723 -1.375922
vt 0.376639 0.973796
vt 0.375000 0.981271
vt 0.375399 0.000000
vt 0.376075 0.001695
vt 0.625000 0.981284
vt 0.623278 0.973796
vt 0.625000 0.906538
vt 0.644242 0.001993
vt 0.375000 0.268717
vt 0.375000 0.343462
vt 0.376040 0.248360
vt 0.623925 0.248305
vt 0.625000 0.268729
vt 0.138962 0.250000
vt 0.231987 0.250000
vt 0.376570 0.485906
vt 0.376150 0.501814
vt 0.375000 0.747890
vt 0.863896 0.248050
vt 0.861038 0.250000
vt 0.768013 0.250000
vt 0.625000 0.502110
vt 0.138957 -0.000000
vt 0.231981 0.000000
vt 0.376100 0.748267
vt 0.623850 0.748187
vt 0.625000 0.760941
vt 0.625000 0.857851
vt 0.376799 0.339887
vt 0.623287 0.339887
vt 0.623229 0.392872
vt 0.232677 0.248100
vt 0.233012 0.002024
vt 0.281792 0.001959
vt 0.718208 0.248135
vt 0.718974 0.001912
vt 0.766988 0.002024
vt 0.376771 0.857128
vt 0.623370 0.857128
vt 0.623233 0.909492
vt 0.623960 0.001640
vt 0.376722 0.276204
vt 0.623361 0.276204
vt 0.623900 0.501733
vt 0.376713 0.910113
vt 0.281027 0.248180
vt 0.355758 0.001993
vt 0.355758 0.248103
vt 0.136104 0.002118
vt 0.136104 0.248050
vt 0.376705 0.764094
vt 0.623430 0.764094
vt 0.766988 0.248136
vt 0.863896 0.002118
vt 0.376630 0.392872
vt 0.624602 0.000398
vt 0.644242 0.248103
vt 0.375000 0.501158
vt 0.623295 0.485906
vt 0.625000 0.748842
vt 0.377557 0.373722
vt 0.625000 0.342697
vt 0.622578 0.375000
vt 0.375000 0.907303
vt 0.377422 0.875000
vt 0.622481 0.876259
vn 0.632484 -0.445296 0.633779
vn 0.469573 -0.002718 0.882890
vn 0.534827 -0.642589 0.548670
vn 0.285664 -0.005710 0.958313
vn 0.784844 0.163635 0.597699
vn 0.596233 0.167202 0.785207
vn 0.634757 -0.442584 0.633407
vn 0.463131 0.002657 0.886286
vn 0.785200 -0.167193 0.596244
vn 0.548974 -0.642314 0.534847
vn 0.884129 -0.002722 0.467235
vn 0.958315 -0.005626 0.285657
vn 0.597696 -0.163641 0.784845
vn 0.885109 0.002654 0.465376
vn 0.634133 0.440497 0.635483
vn 0.534828 0.642246 0.549070
vn 0.285563 0.005455 0.958344
vn 0.633805 0.445227 0.632506
vn 0.548681 0.642582 0.534825
vn 0.958339 0.005547 0.285578
vn -0.482963 0.732579 -0.479662
vn -0.984501 0.004706 -0.175318
vn -0.465283 0.760993 -0.452108
vn -0.820977 0.454243 -0.345918
vn -0.709364 0.006860 -0.704809
vn -0.704841 0.006846 -0.709332
vn -0.480324 0.731595 -0.483796
vn -0.984369 -0.004939 -0.176048
vn -0.709332 -0.006846 -0.704841
vn -0.452039 0.760606 -0.465982
vn -0.173884 0.004671 -0.984755
vn -0.348415 0.457732 -0.817978
vn -0.704809 -0.006860 -0.709364
vn -0.177403 -0.004954 -0.984126
vn -0.483792 -0.731599 -0.480322
vn -0.465977 -0.760611 -0.452036
vn -0.817984 -0.457726 -0.348409
vn -0.479662 -0.732577 -0.482965
vn -0.452129 -0.760978 -0.465286
vn -0.348406 -0.457725 -0.817986
vn 0.060356 0.996349 0.060377
vn 0.060356 0.996349 0.060377
vn 0.060356 0.996351 0.060353
vn 0.060356 0.996351 0.060353
vn -0.661337 -0.000229 0.750089
vn -0.661139 -0.000226 0.750263
vn -0.635695 0.000181 0.771940
vn -0.635503 0.000184 0.772098
vn 0.772108 0.000000 -0.635492
vn 0.772022 0.000002 -0.635596
vn 0.760098 0.000225 -0.649808
vn 0.760001 0.000227 -0.649922
vn 0.060322 -0.996349 0.060420
vn 0.060286 -0.996353 0.060383
vn 0.054201 -0.997058 0.054200
vn 0.054171 -0.997061 0.054170
vn 0.707107 -0.000000 0.707107
vn 0.707107 -0.000000 0.707107
vn 0.707107 -0.000000 0.707107
vn 0.707107 0.000000 0.707107
vn -0.990711 0.000000 -0.135983
vn -0.990711 0.000000 -0.135983
vn -0.135985 0.000000 -0.990711
vn -0.135985 0.000000 -0.990711
vn -0.373434 0.817349 0.438735
vn -0.295954 0.845173 0.445077
vn -0.287922 0.847692 0.445554
vn -0.224690 0.865242 0.448186
vn 0.467007 0.851277 -0.239233
vn 0.465723 0.840941 -0.275536
vn 0.465893 0.842110 -0.271654
vn 0.463517 0.828053 -0.315404
vn -0.239278 -0.851265 0.467006
vn -0.275562 -0.840925 0.465736
vn -0.271681 -0.842094 0.465905
vn -0.315407 -0.828035 0.463548
vn 0.447337 -0.858400 -0.251077
vn 0.445475 -0.847188 -0.289524
vn 0.445188 -0.845670 -0.294362
vn 0.441851 -0.829998 -0.340398
s 1
g tv scene
usemtl initialShadingGroup
f 1/1/1 3/2/2 33/45/3
f 33/45/3 3/2/2 34/64/4
f 2/4/5 1/3/1 5/41/6
f 5/41/6 1/3/1 6/56/7
f 3/47/2 2/4/5 7/48/8
f 7/48/8 2/4/5 8/11/9
f 6/6/7 38/40/10 4/5/11
f 4/5/11 38/40/10 37/7/12
f 5/41/6 4/8/11 11/12/13
f 11/12/13 4/8/11 12/57/14
f 9/42/15 28/29/16 7/9/8
f 7/9/8 28/29/16 27/10/17
f 9/42/15 8/11/9 10/43/18
f 10/43/18 8/11/9 11/12/13
f 10/43/18 12/13/14 29/30/19
f 29/30/19 12/13/14 30/62/20
s 3
f 13/14/21 15/50/22 25/15/23
f 25/15/23 15/50/22 26/32/24
f 14/17/25 13/16/21 17/44/26
f 17/44/26 13/16/21 18/59/27
f 15/58/22 14/17/25 19/18/28
f 19/18/28 14/17/25 20/25/29
f 18/20/27 32/21/30 16/19/31
f 16/19/31 32/21/30 31/53/32
f 17/44/26 16/22/31 23/26/33
f 23/26/33 16/22/31 24/60/34
f 21/23/35 36/24/36 19/49/28
f 19/49/28 36/24/36 35/33/37
f 21/51/35 20/25/29 22/52/38
f 22/52/38 20/25/29 23/26/33
f 22/52/38 24/27/34 39/39/39
f 39/39/39 24/27/34 40/28/40
s 5
f 25/55/41 28/29/42 32/31/43
f 32/31/43 28/29/42 29/30/44
s 6
f 27/46/45 26/32/46 34/34/47
f 34/34/47 26/32/46 35/33/48
s 7
f 31/53/49 30/35/50 40/37/51
f 40/37/51 30/35/50 37/36/52
s 8
f 33/45/53 36/38/54 38/40/55
f 38/40/55 36/38/54 39/39/56
s 9
f 2/4/57 5/41/58 8/11/59
f 8/11/59 5/41/58 11/12/60
s 1
f 9/42/15 10/43/18 28/29/16
f 28/29/16 10/43/18 29/30/19
s 3
f 14/17/25 17/44/26 20/25/29
f 20/25/29 17/44/26 23/26/33
s 1
f 33/45/3 38/40/10 1/1/1
f 1/1/1 38/40/10 6/6/7
f 4/8/11 37/36/12 12/57/14
f 12/57/14 37/36/12 30/35/20
f 27/46/17 34/34/4 7/48/8
f 7/48/8 34/34/4 3/47/2
s 3
f 19/49/28 35/33/61 15/50/22
f 15/50/22 35/33/61 26/32/62
f 21/51/35 22/52/38 36/38/36
f 36/38/36 22/52/38 39/39/39
f 31/53/63 40/37/64 16/19/31
f 16/19/31 40/37/64 24/54/34
f 25/55/23 32/31/30 13/16/21
f 13/16/21 32/31/30 18/59/27
s 1
f 1/3/1 2/4/5 3/47/2
f 4/8/11 5/41/6 6/56/7
f 7/48/8 8/11/9 9/42/15
f 10/43/18 11/12/13 12/57/14
s 3
f 13/16/21 14/17/25 15/58/22
f 16/22/31 17/44/26 18/59/27
f 19/18/28 20/25/29 21/51/35
f 22/52/38 23/26/33 24/60/34
s 10
f 26/61/65 27/10/66 25/55/67
f 25/55/67 27/10/66 28/29/68
s 11
f 29/30/69 30/62/70 32/31/71
f 32/31/71 30/62/70 31/63/72
s 12
f 33/45/73 34/64/74 36/38/75
f 36/38/75 34/64/74 35/65/76
s 13
f 38/40/77 39/39/78 37/7/79
f 37/7/79 39/39/78 40/66/80
