# This file uses centimeters as units for non-parametric coordinates.

mtllib TV.mtl
g default
v -1.688790 0.856268 -0.481766
v -1.688790 1.583623 -0.481766
v -1.740201 0.830093 -0.471154
v -1.740201 1.609798 -0.471154
v -1.695777 1.583623 -0.488753
v -1.695777 0.856268 -0.488753
v -1.722282 1.564340 -0.560947
v -1.722282 0.875551 -0.560947
v -1.419488 0.785104 -0.787879
v -1.414222 0.785104 -0.782613
v -1.347600 0.813892 -0.859766
v -1.424754 0.785104 -0.793144
v -1.491376 0.756316 -0.715991
v -1.481669 0.758235 -0.715869
v -1.347478 0.811972 -0.850059
v -1.357307 0.811972 -0.859888
v -1.491498 0.758235 -0.725698
v -1.557891 0.731367 -0.657900
v -1.563264 0.727528 -0.644103
v -1.549466 0.731367 -0.649475
v -1.467169 0.762074 -0.720539
v -1.408957 0.785104 -0.777347
v -1.352149 0.808134 -0.835560
v -1.281085 0.838841 -0.917857
v -1.275712 0.842679 -0.931654
v -1.289510 0.838841 -0.926282
v -1.371807 0.808134 -0.855218
v -1.430019 0.785104 -0.798410
v -1.486828 0.762074 -0.740198
v -1.517201 0.742882 -0.674720
v -1.306330 0.827326 -0.885591
v -1.532647 0.742882 -0.690166
v -1.321776 0.827326 -0.901037
v -0.827066 0.856268 -1.343490
v -0.827066 1.583623 -1.343490
v -0.816454 0.830093 -1.394901
v -0.816454 1.609798 -1.394901
v -0.834052 1.583623 -1.350477
v -0.834052 0.856268 -1.350477
v -0.906247 1.564340 -1.376983
v -0.906247 0.875551 -1.376983
v -1.133178 0.785104 -1.074189
v -1.127913 0.785104 -1.068923
v -1.205066 0.813892 -1.002301
v -1.138444 0.785104 -1.079454
v -1.061291 0.756316 -1.146077
v -1.061168 0.758235 -1.136369
v -1.195359 0.811972 -1.002179
v -1.205188 0.811972 -1.012008
v -1.070998 0.758235 -1.146199
v -1.003200 0.731367 -1.212592
v -0.989402 0.727528 -1.217964
v -0.994775 0.731367 -1.204167
v -1.065839 0.762074 -1.121870
v -1.122647 0.785104 -1.063657
v -1.180860 0.808134 -1.006849
v -1.263157 0.838841 -0.935785
v -1.276954 0.842679 -0.930413
v -1.271581 0.838841 -0.944210
v -1.200518 0.808134 -1.026507
v -1.143710 0.785104 -1.084720
v -1.085497 0.762074 -1.141528
v -1.020020 0.742882 -1.171901
v -1.230891 0.827326 -0.961030
v -1.035466 0.742882 -1.187347
v -1.246337 0.827326 -0.976476
v -1.257928 0.856268 -0.912628
v -1.257928 1.583623 -0.912628
v -1.278327 0.830093 -0.933028
v -1.278327 1.609798 -0.933028
v -1.264915 0.856268 -0.919615
v -1.264915 1.583623 -0.919615
v -1.314265 0.875551 -0.968965
v -1.314265 1.564340 -0.968965
vn -0.000000 -1.000000 -0.000000
vn -0.000000 -1.000000 -0.000000
vn -0.000000 -1.000000 -0.000000
vn -0.000000 -1.000000 -0.000000
vn -0.471404 -0.745356 -0.471404
vn -0.471404 -0.745356 -0.471404
vn -0.471404 -0.745356 -0.471404
vn -0.471404 -0.745356 -0.471404
vn 0.202150 -0.000000 0.979355
vn 0.202150 -0.000000 0.979355
vn 0.202150 -0.000000 0.979355
vn 0.202150 -0.000000 0.979355
vn 0.475145 -0.740591 0.475145
vn 0.475145 -0.740591 0.475145
vn 0.475145 -0.740591 0.475145
vn 0.475145 -0.740591 0.475145
vn 0.707107 0.000000 -0.707107
vn 0.707107 0.000000 -0.707107
vn 0.707107 0.000000 -0.707107
vn 0.707107 0.000000 -0.707107
vn -0.980666 0.000000 -0.195690
vn -0.980666 0.000000 -0.195690
vn -0.980666 0.000000 -0.195690
vn -0.980666 0.000000 -0.195690
vn -0.192649 0.962170 0.192656
vn -0.192649 0.962170 0.192656
vn -0.192649 0.962170 0.192656
vn -0.192649 0.962170 0.192656
vn -0.192652 0.962170 0.192652
vn -0.192652 0.962170 0.192652
vn -0.192652 0.962170 0.192652
vn -0.192652 0.962170 0.192652
vn -0.192652 0.962170 0.192652
vn -0.192652 0.962170 0.192652
vn -0.192652 0.962170 0.192652
vn -0.192652 0.962170 0.192652
vn -0.192652 0.962170 0.192652
vn -0.192652 0.962170 0.192652
vn -0.192652 0.962170 0.192652
vn -0.192652 0.962170 0.192652
vn -0.192656 0.962170 0.192649
vn -0.192656 0.962170 0.192649
vn -0.192656 0.962170 0.192649
vn -0.192656 0.962170 0.192649
vn -0.192649 0.962170 0.192656
vn -0.192649 0.962170 0.192656
vn -0.192649 0.962170 0.192656
vn -0.192649 0.962170 0.192656
vn -0.192652 0.962170 0.192652
vn -0.192652 0.962170 0.192652
vn -0.192652 0.962170 0.192652
vn -0.192652 0.962170 0.192652
vn -0.192658 0.962170 0.192646
vn -0.192658 0.962170 0.192646
vn -0.192658 0.962170 0.192646
vn -0.192658 0.962170 0.192646
vn -0.192649 0.962170 0.192656
vn -0.192649 0.962170 0.192656
vn -0.192649 0.962170 0.192656
vn -0.192649 0.962170 0.192656
vn -0.192652 0.962170 0.192652
vn -0.192652 0.962170 0.192652
vn -0.192652 0.962170 0.192652
vn -0.192652 0.962170 0.192652
vn -0.192656 0.962170 0.192648
vn -0.192656 0.962170 0.192648
vn -0.192656 0.962170 0.192648
vn -0.192656 0.962170 0.192648
vn -0.192646 0.962170 0.192658
vn -0.192646 0.962170 0.192658
vn -0.192646 0.962170 0.192658
vn -0.192646 0.962170 0.192658
vn -0.192657 0.962170 0.192647
vn -0.192657 0.962170 0.192647
vn -0.192657 0.962170 0.192647
vn -0.192657 0.962170 0.192647
vn -0.192652 0.962169 0.192653
vn -0.192652 0.962169 0.192653
vn -0.192652 0.962169 0.192653
vn -0.192652 0.962169 0.192653
vn -0.192651 0.962170 0.192653
vn -0.192651 0.962170 0.192653
vn -0.192651 0.962170 0.192653
vn -0.192651 0.962170 0.192653
vn -0.192652 0.962170 0.192652
vn -0.192652 0.962170 0.192652
vn -0.192652 0.962170 0.192652
vn -0.192652 0.962170 0.192652
vn -0.471404 0.745356 -0.471404
vn -0.471404 0.745356 -0.471404
vn -0.471404 0.745356 -0.471404
vn -0.471404 0.745356 -0.471404
vn -0.707107 0.000000 -0.707107
vn -0.707107 0.000000 -0.707107
vn -0.707107 0.000000 -0.707107
vn -0.707107 0.000000 -0.707107
vn 0.000000 1.000000 0.000000
vn 0.000000 1.000000 0.000000
vn 0.000000 1.000000 0.000000
vn 0.000000 1.000000 0.000000
vn 0.707107 -0.000000 0.707107
vn 0.707107 -0.000000 0.707107
vn 0.707107 -0.000000 0.707107
vn 0.707107 -0.000000 0.707107
vn 0.475145 0.740591 0.475145
vn 0.475145 0.740591 0.475145
vn 0.475145 0.740591 0.475145
vn 0.475145 0.740591 0.475145
vn -0.000000 -1.000000 -0.000000
vn -0.000000 -1.000000 -0.000000
vn -0.000000 -1.000000 -0.000000
vn -0.000000 -1.000000 -0.000000
vn -0.471404 -0.745356 -0.471404
vn -0.471404 -0.745356 -0.471404
vn -0.471404 -0.745356 -0.471404
vn -0.471404 -0.745356 -0.471404
vn 0.979355 -0.000000 0.202150
vn 0.979355 -0.000000 0.202150
vn 0.979355 -0.000000 0.202150
vn 0.979355 -0.000000 0.202150
vn 0.475145 -0.740591 0.475145
vn 0.475145 -0.740591 0.475145
vn 0.475145 -0.740591 0.475145
vn 0.475145 -0.740591 0.475145
vn -0.707107 0.000000 0.707107
vn -0.707107 0.000000 0.707107
vn -0.707107 0.000000 0.707107
vn -0.707107 0.000000 0.707107
vn -0.195690 0.000000 -0.980666
vn -0.195690 0.000000 -0.980666
vn -0.195690 0.000000 -0.980666
vn -0.195690 0.000000 -0.980666
vn 0.192657 0.962170 -0.192647
vn 0.192657 0.962170 -0.192647
vn 0.192657 0.962170 -0.192647
vn 0.192657 0.962170 -0.192647
vn 0.192651 0.962170 -0.192653
vn 0.192651 0.962170 -0.192653
vn 0.192651 0.962170 -0.192653
vn 0.192651 0.962170 -0.192653
vn 0.192652 0.962170 -0.192653
vn 0.192652 0.962170 -0.192653
vn 0.192652 0.962170 -0.192653
vn 0.192652 0.962170 -0.192653
vn 0.192652 0.962170 -0.192652
vn 0.192652 0.962170 -0.192652
vn 0.192652 0.962170 -0.192652
vn 0.192652 0.962170 -0.192652
vn 0.192649 0.962170 -0.192656
vn 0.192649 0.962170 -0.192656
vn 0.192649 0.962170 -0.192656
vn 0.192649 0.962170 -0.192656
vn 0.192656 0.962170 -0.192648
vn 0.192656 0.962170 -0.192648
vn 0.192656 0.962170 -0.192648
vn 0.192656 0.962170 -0.192648
vn 0.192652 0.962170 -0.192652
vn 0.192652 0.962170 -0.192652
vn 0.192652 0.962170 -0.192652
vn 0.192652 0.962170 -0.192652
vn 0.192646 0.962170 -0.192658
vn 0.192646 0.962170 -0.192658
vn 0.192646 0.962170 -0.192658
vn 0.192646 0.962170 -0.192658
vn 0.192656 0.962170 -0.192649
vn 0.192656 0.962170 -0.192649
vn 0.192656 0.962170 -0.192649
vn 0.192656 0.962170 -0.192649
vn 0.192652 0.962169 -0.192652
vn 0.192652 0.962169 -0.192652
vn 0.192652 0.962169 -0.192652
vn 0.192652 0.962169 -0.192652
vn 0.192649 0.962170 -0.192656
vn 0.192649 0.962170 -0.192656
vn 0.192649 0.962170 -0.192656
vn 0.192649 0.962170 -0.192656
vn 0.192658 0.962170 -0.192646
vn 0.192658 0.962170 -0.192646
vn 0.192658 0.962170 -0.192646
vn 0.192658 0.962170 -0.192646
vn 0.192649 0.962170 -0.192656
vn 0.192649 0.962170 -0.192656
vn 0.192649 0.962170 -0.192656
vn 0.192649 0.962170 -0.192656
vn 0.192652 0.962170 -0.192652
vn 0.192652 0.962170 -0.192652
vn 0.192652 0.962170 -0.192652
vn 0.192652 0.962170 -0.192652
vn 0.192652 0.962170 -0.192652
vn 0.192652 0.962170 -0.192652
vn 0.192652 0.962170 -0.192652
vn 0.192652 0.962170 -0.192652
vn 0.192652 0.962170 -0.192652
vn 0.192652 0.962170 -0.192652
vn 0.192652 0.962170 -0.192652
vn 0.192652 0.962170 -0.192652
vn -0.471404 0.745356 -0.471404
vn -0.471404 0.745356 -0.471404
vn -0.471404 0.745356 -0.471404
vn -0.471404 0.745356 -0.471404
vn -0.707107 0.000000 -0.707107
vn -0.707107 0.000000 -0.707107
vn -0.707107 0.000000 -0.707107
vn -0.707107 0.000000 -0.707107
vn 0.000000 1.000000 0.000000
vn 0.000000 1.000000 0.000000
vn 0.000000 1.000000 0.000000
vn 0.000000 1.000000 0.000000
vn 0.707107 -0.000000 0.707107
vn 0.707107 -0.000000 0.707107
vn 0.707107 -0.000000 0.707107
vn 0.707107 -0.000000 0.707107
vn 0.475145 0.740591 0.475145
vn 0.475145 0.740591 0.475145
vn 0.475145 0.740591 0.475145
vn 0.475145 0.740591 0.475145
s 1
g tv scene
usemtl tvSG
f 68//1 2//2 72//3
f 72//3 2//2 5//4
s 2
f 3//5 8//6 69//7
f 69//7 8//6 73//8
s 3
f 1//9 2//10 3//11
f 3//11 2//10 4//12
s 4
f 67//13 1//14 69//15
f 69//15 1//14 3//16
s 5
f 2//17 1//18 5//19
f 5//19 1//18 6//20
s 6
f 3//21 4//22 8//23
f 8//23 4//22 7//24
s 7
f 13//25 14//26 9//27
f 9//27 14//26 10//28
s 8
f 14//29 21//30 10//31
f 10//31 21//30 22//32
s 9
f 19//33 20//34 13//35
f 13//35 20//34 14//36
s 10
f 20//37 30//38 14//39
f 14//39 30//38 21//40
s 11
f 10//41 15//42 9//43
f 9//43 15//42 11//44
s 12
f 15//45 24//46 11//47
f 11//47 24//46 25//48
s 13
f 22//49 23//50 10//51
f 10//51 23//50 15//52
s 14
f 23//53 31//54 15//55
f 15//55 31//54 24//56
s 15
f 11//57 16//58 9//59
f 9//59 16//58 12//60
s 16
f 16//61 27//62 12//63
f 12//63 27//62 28//64
s 17
f 25//65 26//66 11//67
f 11//67 26//66 16//68
s 18
f 26//69 33//70 16//71
f 16//71 33//70 27//72
s 19
f 12//73 17//74 9//75
f 9//75 17//74 13//76
s 20
f 17//77 18//78 13//79
f 13//79 18//78 19//80
s 21
f 28//81 29//82 12//83
f 12//83 29//82 17//84
s 22
f 29//85 32//86 17//87
f 17//87 32//86 18//88
s 23
f 4//89 70//90 7//91
f 7//91 70//90 74//92
s 24
f 8//93 7//94 73//95
f 73//95 7//94 74//96
s 25
f 1//97 67//98 6//99
f 6//99 67//98 71//100
s 26
f 6//101 71//102 5//103
f 5//103 71//102 72//104
s 27
f 68//105 70//106 2//107
f 2//107 70//106 4//108
s 28
f 68//109 72//110 35//111
f 35//111 72//110 38//112
s 29
f 73//113 41//114 69//115
f 69//115 41//114 36//116
s 30
f 34//117 36//118 35//119
f 35//119 36//118 37//120
s 31
f 67//121 69//122 34//123
f 34//123 69//122 36//124
s 32
f 35//125 38//126 34//127
f 34//127 38//126 39//128
s 33
f 36//129 41//130 37//131
f 37//131 41//130 40//132
s 34
f 43//133 47//134 42//135
f 42//135 47//134 46//136
s 35
f 55//137 54//138 43//139
f 43//139 54//138 47//140
s 36
f 47//141 53//142 46//143
f 46//143 53//142 52//144
s 37
f 54//145 63//146 47//147
f 47//147 63//146 53//148
s 38
f 44//149 48//150 42//151
f 42//151 48//150 43//152
s 39
f 58//153 57//154 44//155
f 44//155 57//154 48//156
s 40
f 48//157 56//158 43//159
f 43//159 56//158 55//160
s 41
f 57//161 64//162 48//163
f 48//163 64//162 56//164
s 42
f 45//165 49//166 42//167
f 42//167 49//166 44//168
s 43
f 61//169 60//170 45//171
f 45//171 60//170 49//172
s 44
f 49//173 59//174 44//175
f 44//175 59//174 58//176
s 45
f 60//177 66//178 49//179
f 49//179 66//178 59//180
s 46
f 46//181 50//182 42//183
f 42//183 50//182 45//184
s 47
f 52//185 51//186 46//187
f 46//187 51//186 50//188
s 48
f 50//189 62//190 45//191
f 45//191 62//190 61//192
s 49
f 51//193 65//194 50//195
f 50//195 65//194 62//196
s 50
f 37//197 40//198 70//199
f 70//199 40//198 74//200
s 51
f 41//201 73//202 40//203
f 40//203 73//202 74//204
s 52
f 34//205 39//206 67//207
f 67//207 39//206 71//208
s 53
f 39//209 38//210 71//211
f 71//211 38//210 72//212
s 54
f 37//213 70//214 35//215
f 35//215 70//214 68//216
