# This file uses centimeters as units for non-parametric coordinates.

mtllib TV.mtl
g default
v -2.059886 0.817823 -0.462968
v -2.059349 0.827386 -0.467197
v -2.064056 0.825256 -0.457447
v -1.173483 0.825256 -1.348020
v -1.183110 0.827212 -1.343436
v -1.179004 0.817823 -1.343850
v -2.064056 1.611588 -0.457447
v -2.059472 1.609633 -0.467074
v -2.059886 1.619021 -0.462968
v -1.179004 1.619021 -1.343850
v -1.183233 1.609459 -1.343313
v -1.173483 1.611588 -1.348020
v -2.079460 1.605547 -0.512069
v -2.080357 1.596266 -0.517462
v -2.085078 1.598262 -0.507785
v -1.223821 1.598262 -1.369042
v -1.233324 1.596511 -1.364494
v -1.228105 1.605547 -1.363424
v -2.085078 0.838583 -0.507785
v -2.080530 0.840333 -0.517288
v -2.079460 0.831297 -0.512069
v -1.228105 0.831297 -1.363424
v -1.233498 0.840579 -1.364321
v -1.223821 0.838583 -1.369042
v -2.085842 1.630096 -0.464169
v -2.091935 1.623911 -0.457832
v -2.084625 1.623791 -0.451387
v -2.077141 1.629200 -0.458078
v -1.174114 1.629200 -1.361105
v -1.167485 1.623519 -1.368378
v -1.173695 1.624122 -1.375922
v -1.180206 1.630096 -1.369806
v -2.077141 0.807644 -0.458078
v -2.084414 0.813325 -0.451449
v -2.091958 0.812723 -0.457659
v -2.085842 0.806748 -0.464169
v -1.167423 0.813053 -1.368589
v -1.173951 0.807545 -1.361388
v -1.180206 0.806748 -1.369806
v -1.173695 0.812723 -1.375922
vt 0.376639 0.973796
vt 0.375000 0.981271
vt 0.376713 0.910113
vt 0.375000 0.907303
vt 0.376075 0.001695
vt 0.375399 0.000000
vt 0.623960 0.001640
vt 0.624602 0.000398
vt 0.355758 0.001993
vt 0.355758 0.248103
vt 0.376040 0.248360
vt 0.623278 0.973796
vt 0.623233 0.909492
vt 0.625000 0.981284
vt 0.625000 0.906538
vt 0.644242 0.001993
vt 0.623925 0.248305
vt 0.644242 0.248103
vt 0.376722 0.276204
vt 0.376799 0.339887
vt 0.375000 0.268717
vt 0.375000 0.343462
vt 0.623361 0.276204
vt 0.625000 0.268729
vt 0.623287 0.339887
vt 0.625000 0.342697
vt 0.138962 0.250000
vt 0.136104 0.248050
vt 0.231987 0.250000
vt 0.232677 0.248100
vt 0.376150 0.501814
vt 0.376570 0.485906
vt 0.623900 0.501733
vt 0.623295 0.485906
vt 0.375000 0.501158
vt 0.375000 0.747890
vt 0.376100 0.748267
vt 0.861038 0.250000
vt 0.768013 0.250000
vt 0.863896 0.248050
vt 0.766988 0.248136
vt 0.625000 0.502110
vt 0.623850 0.748187
vt 0.625000 0.748842
vt 0.138957 -0.000000
vt 0.231981 0.000000
vt 0.136104 0.002118
vt 0.233012 0.002024
vt 0.376705 0.764094
vt 0.623430 0.764094
vt 0.625000 0.760941
vt 0.623370 0.857128
vt 0.625000 0.857851
vt 0.376630 0.392872
vt 0.623229 0.392872
vt 0.281027 0.248180
vt 0.281792 0.001959
vt 0.718208 0.248135
vt 0.766988 0.002024
vt 0.718974 0.001912
vt 0.376771 0.857128
vt 0.863896 0.002118
vt 0.377557 0.373722
vt 0.622578 0.375000
vt 0.377422 0.875000
vt 0.622481 0.876259
vn 0.632484 -0.445296 0.633779
vn 0.469573 -0.002718 0.882890
vn 0.534827 -0.642589 0.548670
vn 0.534827 -0.642589 0.548670
vn 0.469573 -0.002718 0.882890
vn 0.285664 -0.005710 0.958313
vn 0.784844 0.163635 0.597699
vn 0.632484 -0.445296 0.633779
vn 0.596233 0.167202 0.785207
vn 0.596233 0.167202 0.785207
vn 0.632484 -0.445296 0.633779
vn 0.634757 -0.442584 0.633407
vn 0.469573 -0.002718 0.882890
vn 0.784844 0.163635 0.597699
vn 0.463131 0.002657 0.886286
vn 0.463131 0.002657 0.886286
vn 0.784844 0.163635 0.597699
vn 0.785200 -0.167193 0.596244
vn 0.634757 -0.442584 0.633407
vn 0.548974 -0.642314 0.534847
vn 0.884129 -0.002722 0.467235
vn 0.884129 -0.002722 0.467235
vn 0.548974 -0.642314 0.534847
vn 0.958315 -0.005626 0.285657
vn 0.596233 0.167202 0.785207
vn 0.884129 -0.002722 0.467235
vn 0.597696 -0.163641 0.784845
vn 0.597696 -0.163641 0.784845
vn 0.884129 -0.002722 0.467235
vn 0.885109 0.002654 0.465376
vn 0.634133 0.440497 0.635483
vn 0.534828 0.642246 0.549070
vn 0.463131 0.002657 0.886286
vn 0.463131 0.002657 0.886286
vn 0.534828 0.642246 0.549070
vn 0.285563 0.005455 0.958344
vn 0.634133 0.440497 0.635483
vn 0.785200 -0.167193 0.596244
vn 0.633805 0.445227 0.632506
vn 0.633805 0.445227 0.632506
vn 0.785200 -0.167193 0.596244
vn 0.597696 -0.163641 0.784845
vn 0.633805 0.445227 0.632506
vn 0.885109 0.002654 0.465376
vn 0.548681 0.642582 0.534825
vn 0.548681 0.642582 0.534825
vn 0.885109 0.002654 0.465376
vn 0.958339 0.005547 0.285578
vn -0.482963 0.732579 -0.479662
vn -0.984501 0.004706 -0.175318
vn -0.465283 0.760993 -0.452108
vn -0.465283 0.760993 -0.452108
vn -0.984501 0.004706 -0.175318
vn -0.820977 0.454243 -0.345918
vn -0.709364 0.006860 -0.704809
vn -0.482963 0.732579 -0.479662
vn -0.704841 0.006846 -0.709332
vn -0.704841 0.006846 -0.709332
vn -0.482963 0.732579 -0.479662
vn -0.480324 0.731595 -0.483796
vn -0.984501 0.004706 -0.175318
vn -0.709364 0.006860 -0.704809
vn -0.984369 -0.004939 -0.176048
vn -0.984369 -0.004939 -0.176048
vn -0.709364 0.006860 -0.704809
vn -0.709332 -0.006846 -0.704841
vn -0.480324 0.731595 -0.483796
vn -0.452039 0.760606 -0.465982
vn -0.173884 0.004671 -0.984755
vn -0.173884 0.004671 -0.984755
vn -0.452039 0.760606 -0.465982
vn -0.348415 0.457732 -0.817978
vn -0.704841 0.006846 -0.709332
vn -0.173884 0.004671 -0.984755
vn -0.704809 -0.006860 -0.709364
vn -0.704809 -0.006860 -0.709364
vn -0.173884 0.004671 -0.984755
vn -0.177403 -0.004954 -0.984126
vn -0.483792 -0.731599 -0.480322
vn -0.465977 -0.760611 -0.452036
vn -0.984369 -0.004939 -0.176048
vn -0.984369 -0.004939 -0.176048
vn -0.465977 -0.760611 -0.452036
vn -0.817984 -0.457726 -0.348409
vn -0.483792 -0.731599 -0.480322
vn -0.709332 -0.006846 -0.704841
vn -0.479662 -0.732577 -0.482965
vn -0.479662 -0.732577 -0.482965
vn -0.709332 -0.006846 -0.704841
vn -0.704809 -0.006860 -0.709364
vn -0.479662 -0.732577 -0.482965
vn -0.177403 -0.004954 -0.984126
vn -0.452129 -0.760978 -0.465286
vn -0.452129 -0.760978 -0.465286
vn -0.177403 -0.004954 -0.984126
vn -0.348406 -0.457725 -0.817986
vn 0.060356 0.996349 0.060377
vn 0.060356 0.996349 0.060377
vn 0.060356 0.996351 0.060353
vn 0.060356 0.996351 0.060353
vn 0.060356 0.996349 0.060377
vn 0.060356 0.996351 0.060353
vn -0.661337 -0.000229 0.750089
vn -0.661139 -0.000226 0.750263
vn -0.635695 0.000181 0.771940
vn -0.635695 0.000181 0.771940
vn -0.661139 -0.000226 0.750263
vn -0.635503 0.000184 0.772098
vn 0.772108 0.000000 -0.635492
vn 0.772022 0.000002 -0.635596
vn 0.760098 0.000225 -0.649808
vn 0.760098 0.000225 -0.649808
vn 0.772022 0.000002 -0.635596
vn 0.760001 0.000227 -0.649922
vn 0.060322 -0.996349 0.060420
vn 0.060286 -0.996353 0.060383
vn 0.054201 -0.997058 0.054200
vn 0.054201 -0.997058 0.054200
vn 0.060286 -0.996353 0.060383
vn 0.054171 -0.997061 0.054170
vn 0.707107 -0.000000 0.707107
vn 0.707107 -0.000000 0.707107
vn 0.707107 -0.000000 0.707107
vn 0.707107 -0.000000 0.707107
vn 0.707107 -0.000000 0.707107
vn 0.707107 0.000000 0.707107
vn 0.634133 0.440497 0.635483
vn 0.633805 0.445227 0.632506
vn 0.534828 0.642246 0.549070
vn 0.534828 0.642246 0.549070
vn 0.633805 0.445227 0.632506
vn 0.548681 0.642582 0.534825
vn -0.709364 0.006860 -0.704809
vn -0.704841 0.006846 -0.709332
vn -0.709332 -0.006846 -0.704841
vn -0.709332 -0.006846 -0.704841
vn -0.704841 0.006846 -0.709332
vn -0.704809 -0.006860 -0.709364
vn 0.534827 -0.642589 0.548670
vn 0.548974 -0.642314 0.534847
vn 0.632484 -0.445296 0.633779
vn 0.632484 -0.445296 0.633779
vn 0.548974 -0.642314 0.534847
vn 0.634757 -0.442584 0.633407
vn 0.884129 -0.002722 0.467235
vn 0.958315 -0.005626 0.285657
vn 0.885109 0.002654 0.465376
vn 0.885109 0.002654 0.465376
vn 0.958315 -0.005626 0.285657
vn 0.958339 0.005547 0.285578
vn 0.285563 0.005455 0.958344
vn 0.285664 -0.005710 0.958313
vn 0.463131 0.002657 0.886286
vn 0.463131 0.002657 0.886286
vn 0.285664 -0.005710 0.958313
vn 0.469573 -0.002718 0.882890
vn -0.984369 -0.004939 -0.176048
vn -0.990711 0.000000 -0.135983
vn -0.984501 0.004706 -0.175318
vn -0.984501 0.004706 -0.175318
vn -0.990711 0.000000 -0.135983
vn -0.990711 0.000000 -0.135983
vn -0.483792 -0.731599 -0.480322
vn -0.479662 -0.732577 -0.482965
vn -0.465977 -0.760611 -0.452036
vn -0.465977 -0.760611 -0.452036
vn -0.479662 -0.732577 -0.482965
vn -0.452129 -0.760978 -0.465286
vn -0.135985 0.000000 -0.990711
vn -0.135985 0.000000 -0.990711
vn -0.173884 0.004671 -0.984755
vn -0.173884 0.004671 -0.984755
vn -0.135985 0.000000 -0.990711
vn -0.177403 -0.004954 -0.984126
vn -0.465283 0.760993 -0.452108
vn -0.452039 0.760606 -0.465982
vn -0.482963 0.732579 -0.479662
vn -0.482963 0.732579 -0.479662
vn -0.452039 0.760606 -0.465982
vn -0.480324 0.731595 -0.483796
vn 0.632484 -0.445296 0.633779
vn 0.784844 0.163635 0.597699
vn 0.469573 -0.002718 0.882890
vn 0.884129 -0.002722 0.467235
vn 0.596233 0.167202 0.785207
vn 0.634757 -0.442584 0.633407
vn 0.463131 0.002657 0.886286
vn 0.785200 -0.167193 0.596244
vn 0.634133 0.440497 0.635483
vn 0.633805 0.445227 0.632506
vn 0.597696 -0.163641 0.784845
vn 0.885109 0.002654 0.465376
vn -0.482963 0.732579 -0.479662
vn -0.709364 0.006860 -0.704809
vn -0.984501 0.004706 -0.175318
vn -0.173884 0.004671 -0.984755
vn -0.704841 0.006846 -0.709332
vn -0.480324 0.731595 -0.483796
vn -0.984369 -0.004939 -0.176048
vn -0.709332 -0.006846 -0.704841
vn -0.483792 -0.731599 -0.480322
vn -0.479662 -0.732577 -0.482965
vn -0.704809 -0.006860 -0.709364
vn -0.177403 -0.004954 -0.984126
vn -0.373434 0.817349 0.438735
vn -0.295954 0.845173 0.445077
vn -0.287922 0.847692 0.445554
vn -0.287922 0.847692 0.445554
vn -0.295954 0.845173 0.445077
vn -0.224690 0.865242 0.448186
vn 0.467007 0.851277 -0.239233
vn 0.465723 0.840941 -0.275536
vn 0.465893 0.842109 -0.271654
vn 0.465893 0.842109 -0.271654
vn 0.465723 0.840941 -0.275536
vn 0.463517 0.828053 -0.315404
vn -0.239278 -0.851265 0.467006
vn -0.275562 -0.840925 0.465736
vn -0.271681 -0.842094 0.465905
vn -0.271681 -0.842094 0.465905
vn -0.275562 -0.840925 0.465736
vn -0.315407 -0.828035 0.463548
vn 0.447337 -0.858400 -0.251077
vn 0.445475 -0.847188 -0.289524
vn 0.445188 -0.845670 -0.294362
vn 0.445188 -0.845670 -0.294362
vn 0.445475 -0.847188 -0.289524
vn 0.441851 -0.829998 -0.340398
s off
g TV_ scene
usemtl standardSurface7SG
f 1/1/1 3/2/2 33/3/3
f 33/3/4 3/2/5 34/4/6
f 2/5/7 1/6/8 5/7/9
f 5/7/10 1/6/11 6/8/12
f 3/9/13 2/5/14 7/10/15
f 7/10/16 2/5/17 8/11/18
f 6/12/19 38/13/20 4/14/21
f 4/14/22 38/13/23 37/15/24
f 5/7/25 4/16/26 11/17/27
f 11/17/28 4/16/29 12/18/30
f 9/19/31 28/20/32 7/21/33
f 7/21/34 28/20/35 27/22/36
f 9/19/37 8/11/38 10/23/39
f 10/23/40 8/11/41 11/17/42
f 10/23/43 12/24/44 29/25/45
f 29/25/46 12/24/47 30/26/48
f 13/27/49 15/28/50 25/29/51
f 25/29/52 15/28/53 26/30/54
f 14/31/55 13/32/56 17/33/57
f 17/33/58 13/32/59 18/34/60
f 15/35/61 14/31/62 19/36/63
f 19/36/64 14/31/65 20/37/66
f 18/38/67 32/39/68 16/40/69
f 16/40/70 32/39/71 31/41/72
f 17/33/73 16/42/74 23/43/75
f 23/43/76 16/42/77 24/44/78
f 21/45/79 36/46/80 19/47/81
f 19/47/82 36/46/83 35/48/84
f 21/49/85 20/37/86 22/50/87
f 22/50/88 20/37/89 23/43/90
f 22/50/91 24/51/92 39/52/93
f 39/52/94 24/51/95 40/53/96
f 25/54/97 28/20/98 32/55/99
f 32/55/100 28/20/101 29/25/102
f 27/56/103 26/30/104 34/57/105
f 34/57/106 26/30/107 35/48/108
f 31/41/109 30/58/110 40/59/111
f 40/59/112 30/58/113 37/60/114
f 33/3/115 36/61/116 38/13/117
f 38/13/118 36/61/119 39/52/120
f 2/5/121 5/7/122 8/11/123
f 8/11/124 5/7/125 11/17/126
f 9/19/127 10/23/128 28/20/129
f 28/20/130 10/23/131 29/25/132
f 14/31/133 17/33/134 20/37/135
f 20/37/136 17/33/137 23/43/138
f 33/3/139 38/13/140 1/1/141
f 1/1/142 38/13/143 6/12/144
f 4/16/145 37/60/146 12/18/147
f 12/18/148 37/60/149 30/58/150
f 27/56/151 34/57/152 7/10/153
f 7/10/154 34/57/155 3/9/156
f 19/47/157 35/48/158 15/28/159
f 15/28/160 35/48/161 26/30/162
f 21/49/163 22/50/164 36/61/165
f 36/61/166 22/50/167 39/52/168
f 31/41/169 40/59/170 16/40/171
f 16/40/172 40/59/173 24/62/174
f 25/54/175 32/55/176 13/32/177
f 13/32/178 32/55/179 18/34/180
f 1/6/181 2/5/182 3/9/183
f 4/16/184 5/7/185 6/8/186
f 7/10/187 8/11/188 9/19/189
f 10/23/190 11/17/191 12/18/192
f 13/32/193 14/31/194 15/35/195
f 16/42/196 17/33/197 18/34/198
f 19/36/199 20/37/200 21/49/201
f 22/50/202 23/43/203 24/44/204
f 26/63/205 27/22/206 25/54/207
f 25/54/208 27/22/209 28/20/210
f 29/25/211 30/26/212 32/55/213
f 32/55/214 30/26/215 31/64/216
f 33/3/217 34/4/218 36/61/219
f 36/61/220 34/4/221 35/65/222
f 38/13/223 39/52/224 37/15/225
f 37/15/226 39/52/227 40/66/228
