# This file uses centimeters as units for non-parametric coordinates.

mtllib WindowPane.mtl
g default
v 0.556162 0.946557 -1.413602
v 0.555997 1.459031 -1.413594
v 1.108703 1.967474 -1.391011
v 1.108702 1.454996 -1.391019
v 0.556162 1.454996 -1.391019
v 0.555997 1.967470 -1.391003
v 0.509195 1.459035 -1.413602
v 0.509195 0.946557 -1.413602
v -0.043344 0.946557 -1.413602
v -0.043510 1.459031 -1.413594
v 0.509195 1.967474 -1.391019
v 0.509195 1.454996 -1.391019
v -0.043344 1.454996 -1.391019
v -0.043510 1.967470 -1.391003
v 1.108702 1.459035 -1.413602
v 1.108702 0.946557 -1.413602
vt 0.321740 0.650979
vt 0.001081 0.650979
vt 0.001081 0.305200
vt 0.321740 0.305200
vt 0.323901 0.968505
vt 0.323901 0.647845
vt 0.669680 0.647845
vt 0.669680 0.968505
vt 0.321740 0.998919
vt 0.001081 0.998919
vt 0.001081 0.653140
vt 0.321740 0.653140
vt 0.644561 0.645684
vt 0.323901 0.645684
vt 0.323901 0.299904
vt 0.644561 0.299904
vn 0.000007 -0.000023 1.000000
vn 0.000014 -0.000016 1.000000
vn 0.000007 -0.000023 1.000000
vn 0.000007 -0.000023 1.000000
vn 0.000000 -0.000031 1.000000
vn 0.000007 -0.000023 1.000000
vn 0.000007 -0.000008 1.000000
vn 0.000014 -0.000000 1.000000
vn 0.000007 -0.000008 1.000000
vn 0.000007 -0.000008 1.000000
vn 0.000000 -0.000016 1.000000
vn 0.000007 -0.000008 1.000000
vn 0.000014 -0.000016 1.000000
vn 0.000029 -0.000000 1.000000
vn 0.000014 -0.000016 1.000000
vn 0.000014 -0.000016 1.000000
vn 0.000000 -0.000031 1.000000
vn 0.000014 -0.000016 1.000000
vn 0.000007 -0.000008 1.000000
vn 0.000014 -0.000000 1.000000
vn 0.000007 -0.000008 1.000000
vn 0.000007 -0.000008 1.000000
vn 0.000000 -0.000016 1.000000
vn 0.000007 -0.000008 1.000000
s off
g Window_pane_ scene
usemtl standardSurface9SG
f 4/1/1 3/2/2 6/3/3
f 6/3/4 5/4/5 4/1/6
f 8/5/7 7/6/8 10/7/9
f 10/7/10 9/8/11 8/5/12
f 12/9/13 11/10/14 14/11/15
f 14/11/16 13/12/17 12/9/18
f 16/13/19 15/14/20 2/15/21
f 2/15/22 1/16/23 16/13/24
